<svg width="188" height="188" viewBox="0 0 188 188" fill="none" xmlns="http://www.w3.org/2000/svg">
<g opacity="0.07">
<path d="M113.62 125.95H125.94V113.62L119.78 119.78V119.79L113.62 125.95Z" stroke="#213263" stroke-width="0.75" stroke-miterlimit="10"/>
<path d="M51.2799 35.38H35.3799V51.28L47.1499 63.05L52.0999 58.1H58.0999V52.1L63.0499 47.15L51.2799 35.38Z" stroke="#213263" stroke-width="0.75" stroke-miterlimit="10"/>
<path d="M35.3799 82.7V105.3L46.6799 93.9999L35.3799 82.7Z" stroke="#213263" stroke-width="0.75" stroke-miterlimit="10"/>
<path d="M47.1399 67.28L35.3799 55.52V78.46L46.6799 89.76L59.0599 77.38V61.1H53.3199L47.1399 67.28Z" stroke="#213263" stroke-width="0.75" stroke-miterlimit="10"/>
<path d="M48.2798 155.63H32.3798V139.72L16.0598 156.04V171.95H31.9598L48.2798 155.63Z" stroke="#213263" stroke-width="0.75" stroke-miterlimit="10"/>
<path d="M35.3799 132.48L47.1299 120.73L47.1399 120.72L53.3199 126.9H59.0599V110.62L46.6799 98.24L35.3799 109.54V132.48Z" stroke="#213263" stroke-width="0.75" stroke-miterlimit="10"/>
<path d="M35.3799 152.63H51.2799L63.0499 140.86L58.0999 135.91V129.91V129.9H52.0999L47.1499 124.95L35.3799 136.72V152.63Z" stroke="#213263" stroke-width="0.75" stroke-miterlimit="10"/>
<path d="M59.0599 81.62L46.6799 94L59.0599 106.38V81.62Z" stroke="#213263" stroke-width="0.75" stroke-miterlimit="10"/>
<path d="M16.0598 16.0601V31.9601L32.3798 48.2801V32.3901L32.3698 32.3801H48.2798L31.9598 16.0601H16.0598Z" stroke="#213263" stroke-width="0.75" stroke-miterlimit="10"/>
<path d="M16.0598 59.1399L32.3798 75.46V52.52L16.0598 36.2V59.1399Z" stroke="#213263" stroke-width="0.75" stroke-miterlimit="10"/>
<path d="M16.0598 151.8L32.3798 135.48V112.54L16.0598 128.86V151.8Z" stroke="#213263" stroke-width="0.75" stroke-miterlimit="10"/>
<path d="M36.2 16.0601L52.52 32.3801H75.46L59.1399 16.0601H36.2Z" stroke="#213263" stroke-width="0.75" stroke-miterlimit="10"/>
<path d="M55.5198 35.38L65.1698 45.03L67.2698 47.13L67.2798 47.14L61.0998 53.32V59.06H77.3798L89.7598 46.68L78.4598 35.38H55.5198Z" stroke="#213263" stroke-width="0.75" stroke-miterlimit="10"/>
<path d="M125.94 62.0601H113.62L119.78 68.2201L125.94 74.3801V62.0601Z" stroke="#213263" stroke-width="0.75" stroke-miterlimit="10"/>
<path d="M62.0598 62.0601V74.3801L74.3798 62.0601H62.0598Z" stroke="#213263" stroke-width="0.75" stroke-miterlimit="10"/>
<path d="M106.38 59.0599L93.9999 46.6799L81.6199 59.0599H106.38Z" stroke="#213263" stroke-width="0.75" stroke-miterlimit="10"/>
<path d="M93.9999 46.68L105.3 35.38H82.7L93.9999 46.68Z" stroke="#213263" stroke-width="0.75" stroke-miterlimit="10"/>
<path d="M155.62 75.46L171.94 59.1399V36.2L155.62 52.52V75.46Z" stroke="#213263" stroke-width="0.75" stroke-miterlimit="10"/>
<path d="M13.06 15.85H6.44995L3.19995 19.1L13.06 28.96V15.85Z" stroke="#213263" stroke-width="0.75" stroke-miterlimit="10"/>
<path d="M171.94 16.0601H156.04L139.72 32.3801H155.63L155.62 32.3901V48.2801L171.94 31.9601V16.0601Z" stroke="#213263" stroke-width="0.75" stroke-miterlimit="10"/>
<path d="M184.8 168.9L174.94 159.04V172.15H181.55L184.8 168.9Z" stroke="#213263" stroke-width="0.75" stroke-miterlimit="10"/>
<path d="M5.20996 111.1L16.06 116.16V124.62L32.38 108.3V79.7L16.06 63.38V71.84L5.20996 76.9L19.35 82.05V82.06L18.33 84.86L15 94L18.33 103.14L19.35 105.94V105.95L5.20996 111.1Z" stroke="#213263" stroke-width="0.75" stroke-miterlimit="10"/>
<path d="M175.11 5.17004V12.89H182.83" stroke="#213263" stroke-width="0.75" stroke-miterlimit="10"/>
<path d="M182.79 76.9L171.94 71.84V63.38L155.62 79.7V108.3L171.94 124.62V116.16L182.79 111.1L168.65 105.95V105.94L169.67 103.14L173 94L169.67 84.86L168.65 82.06V82.05L182.79 76.9Z" stroke="#213263" stroke-width="0.75" stroke-miterlimit="10"/>
<path d="M181.55 15.85H174.94V28.96L184.8 19.1L181.55 15.85Z" stroke="#213263" stroke-width="0.75" stroke-miterlimit="10"/>
<path d="M172.15 13.06V6.44995L168.9 3.19995L159.04 13.06H172.15Z" stroke="#213263" stroke-width="0.75" stroke-miterlimit="10"/>
<path d="M128.94 106.38L141.32 94L128.94 81.62V106.38Z" stroke="#213263" stroke-width="0.75" stroke-miterlimit="10"/>
<path d="M112.54 32.3801H135.48L151.8 16.0601H128.86L112.54 32.3801Z" stroke="#213263" stroke-width="0.75" stroke-miterlimit="10"/>
<path d="M152.62 55.52L142.97 65.17L140.87 67.27L140.86 67.28L134.68 61.1H128.94V77.38L141.32 89.76L152.62 78.46V55.52Z" stroke="#213263" stroke-width="0.75" stroke-miterlimit="10"/>
<path d="M152.62 35.38H136.72L124.95 47.15L129.9 52.1V58.1H135.9L140.85 63.05L152.62 51.28V35.38Z" stroke="#213263" stroke-width="0.75" stroke-miterlimit="10"/>
<path d="M98.24 46.68L110.62 59.06H126.9V53.32L120.72 47.14L120.73 47.13L122.83 45.03L132.48 35.38H109.54L98.24 46.68Z" stroke="#213263" stroke-width="0.75" stroke-miterlimit="10"/>
<path d="M152.62 82.7L141.32 93.9999L152.62 105.3V82.7Z" stroke="#213263" stroke-width="0.75" stroke-miterlimit="10"/>
<path d="M135.9 129.9H129.9V129.91V135.91L124.95 140.86L136.72 152.63H152.62V136.72L140.85 124.95L135.9 129.9Z" stroke="#213263" stroke-width="0.75" stroke-miterlimit="10"/>
<path d="M152.62 109.54L141.32 98.24L128.94 110.62V126.9H134.68L140.86 120.72L140.87 120.73L142.97 122.83L152.62 132.48V109.54Z" stroke="#213263" stroke-width="0.75" stroke-miterlimit="10"/>
<path d="M125.94 78.6201L117.66 70.3401L109.38 62.0601H78.6198L70.3398 70.3401L62.0598 78.6201V109.38L70.3398 117.66V117.67L78.6198 125.95H109.38L117.66 117.67V117.66L125.94 109.38V78.6201Z" stroke="#213263" stroke-width="0.75" stroke-miterlimit="10"/>
<path d="M1 139.68L13.06 127.62V118.07L1.22 112.55L1 112.45" stroke="#213263" stroke-width="0.75" stroke-miterlimit="10"/>
<path d="M44.0799 187.01L56.1399 174.95H33.1999L21.1399 187.01" stroke="#213263" stroke-width="0.75" stroke-miterlimit="10"/>
<path d="M75.5498 187.01L75.4498 186.79L69.9298 174.95H60.3798L48.3198 187.01" stroke="#213263" stroke-width="0.75" stroke-miterlimit="10"/>
<path d="M109.44 187.01L109.31 186.64L103.82 171.55L93.9998 175.12L84.1798 171.55L78.6898 186.64L78.5598 187.01" stroke="#213263" stroke-width="0.75" stroke-miterlimit="10"/>
<path d="M124.62 171.95L108.3 155.63H79.6999L63.3799 171.95H71.8399L76.8999 182.8L82.0499 168.66H82.0599L84.8599 169.68L93.9999 173.01L103.14 169.68L105.94 168.66H105.95L111.1 182.8L116.16 171.95H124.62Z" stroke="#213263" stroke-width="0.75" stroke-miterlimit="10"/>
<path d="M15.8499 174.95V181.56L19.0999 184.81L28.9599 174.95H15.8499Z" stroke="#213263" stroke-width="0.75" stroke-miterlimit="10"/>
<path d="M139.68 187.01L127.62 174.95H118.07L112.55 186.79L112.45 187.01" stroke="#213263" stroke-width="0.75" stroke-miterlimit="10"/>
<path d="M1 109.44L1.37 109.31L16.46 103.82L12.89 94.0001L16.46 84.1801L1.37 78.6901L1 78.5601" stroke="#213263" stroke-width="0.75" stroke-miterlimit="10"/>
<path d="M12.8899 182.84V175.11H5.16992" stroke="#213263" stroke-width="0.75" stroke-miterlimit="10"/>
<path d="M1 166.86L13.06 154.8V131.86L1 143.92" stroke="#213263" stroke-width="0.75" stroke-miterlimit="10"/>
<path d="M6.44995 172.15H13.06V159.04L3.19995 168.9L6.44995 172.15Z" stroke="#213263" stroke-width="0.75" stroke-miterlimit="10"/>
<path d="M166.86 187.01L154.8 174.95H131.86L143.92 187.01" stroke="#213263" stroke-width="0.75" stroke-miterlimit="10"/>
<path d="M187 78.5601L186.63 78.6901L171.54 84.1801L175.11 94.0001L171.54 103.82L186.63 109.31L187 109.44" stroke="#213263" stroke-width="0.75" stroke-miterlimit="10"/>
<path d="M187 48.3201L174.94 60.3801V69.9301L186.78 75.4501L187 75.5501" stroke="#213263" stroke-width="0.75" stroke-miterlimit="10"/>
<path d="M187 21.14L174.94 33.2V56.14L187 44.08" stroke="#213263" stroke-width="0.75" stroke-miterlimit="10"/>
<path d="M187 112.45L186.78 112.55L174.94 118.07V127.62L187 139.68" stroke="#213263" stroke-width="0.75" stroke-miterlimit="10"/>
<path d="M187 143.92L174.94 131.86V154.8L187 166.86" stroke="#213263" stroke-width="0.75" stroke-miterlimit="10"/>
<path d="M172.15 174.95H159.04L168.9 184.81L172.15 181.56V174.95Z" stroke="#213263" stroke-width="0.75" stroke-miterlimit="10"/>
<path d="M182.83 175.11H175.11V182.84" stroke="#213263" stroke-width="0.75" stroke-miterlimit="10"/>
<path d="M171.94 171.95V156.04L155.62 139.72V155.63H139.72L156.04 171.95H171.94Z" stroke="#213263" stroke-width="0.75" stroke-miterlimit="10"/>
<path d="M75.46 155.63H52.52L36.2 171.95H59.1399L75.46 155.63Z" stroke="#213263" stroke-width="0.75" stroke-miterlimit="10"/>
<path d="M171.94 128.86L155.62 112.54V135.48L171.94 151.8V128.86Z" stroke="#213263" stroke-width="0.75" stroke-miterlimit="10"/>
<path d="M151.8 171.95L135.48 155.63H112.54L128.86 171.95H151.8Z" stroke="#213263" stroke-width="0.75" stroke-miterlimit="10"/>
<path d="M143.92 1L131.86 13.06H154.8L166.86 1" stroke="#213263" stroke-width="0.75" stroke-miterlimit="10"/>
<path d="M132.48 152.63L122.83 142.98L120.73 140.88L120.72 140.87L126.9 134.69V128.95H110.62L98.24 141.33L109.54 152.63H132.48Z" stroke="#213263" stroke-width="0.75" stroke-miterlimit="10"/>
<path d="M81.6199 128.95L93.9999 141.33L106.38 128.95H81.6199Z" stroke="#213263" stroke-width="0.75" stroke-miterlimit="10"/>
<path d="M89.7598 141.33L77.3798 128.95H61.0998V134.69L67.2798 140.87L67.2698 140.88L65.1698 142.98L55.5198 152.63H78.4598L89.7598 141.33Z" stroke="#213263" stroke-width="0.75" stroke-miterlimit="10"/>
<path d="M112.45 1L112.55 1.22L118.07 13.06H127.62L139.68 1" stroke="#213263" stroke-width="0.75" stroke-miterlimit="10"/>
<path d="M93.9999 141.33L82.7 152.63H105.3L93.9999 141.33Z" stroke="#213263" stroke-width="0.75" stroke-miterlimit="10"/>
<path d="M1 44.08L13.06 56.14V33.2L1 21.14" stroke="#213263" stroke-width="0.75" stroke-miterlimit="10"/>
<path d="M5.16992 12.89H12.8899V5.17004" stroke="#213263" stroke-width="0.75" stroke-miterlimit="10"/>
<path d="M78.5598 1L78.6898 1.37L84.1798 16.46L93.9998 12.89L103.82 16.46L109.31 1.37L109.44 1" stroke="#213263" stroke-width="0.75" stroke-miterlimit="10"/>
<path d="M19.0999 3.19995L15.8499 6.44995V13.06H28.9599L19.0999 3.19995Z" stroke="#213263" stroke-width="0.75" stroke-miterlimit="10"/>
<path d="M1 75.5501L1.22 75.4501L13.06 69.9301V60.3801L1 48.3201" stroke="#213263" stroke-width="0.75" stroke-miterlimit="10"/>
<path d="M63.3799 16.06L79.6999 32.38H108.3L124.62 16.06H116.16L111.1 5.20996L105.95 19.35H105.94L103.14 18.33L93.9999 15L84.8599 18.33L82.0599 19.35H82.0499L76.8999 5.20996L71.8399 16.06H63.3799Z" stroke="#213263" stroke-width="0.75" stroke-miterlimit="10"/>
<path d="M21.1399 1L33.1999 13.06H56.1399L44.0799 1" stroke="#213263" stroke-width="0.75" stroke-miterlimit="10"/>
<path d="M48.3198 1L60.3798 13.06H69.9298L75.4498 1.22L75.5498 1" stroke="#213263" stroke-width="0.75" stroke-miterlimit="10"/>
<path d="M62.0598 113.62V125.95H74.3798L68.2198 119.79V119.78L62.0598 113.62Z" stroke="#213263" stroke-width="0.75" stroke-miterlimit="10"/>
</g>
</svg>
