<svg id="Layer_1" data-name="Layer 1" xmlns="http://www.w3.org/2000/svg" viewBox="0 0 1230.4 981.54"><defs><style>.cls-1{opacity:0.25;}.cls-2{fill:#4bc4f9;}.cls-3{fill:none;}.cls-4{fill:#106ac4;}</style></defs><g class="cls-1"><path class="cls-2" d="M390.62,475.52H324l-.12-.2-33.2-57.51L324,360.1h66.64l.11.19,33.21,57.52Zm-66.19-.79h65.73L423,417.81l-32.87-56.93H324.43l-32.87,56.93Z" transform="translate(-286.92 -71.18)"/><line class="cls-3" x1="70.38" y1="289.43" x2="70.38" y2="404.34"/><circle class="cls-4" cx="37.51" cy="289.43" r="4.15"/><circle class="cls-4" cx="103.49" cy="289.56" r="4.15"/><circle class="cls-4" cx="136.35" cy="346.77" r="4.15"/><circle class="cls-4" cx="103.24" cy="403.84" r="4.15"/><circle class="cls-4" cx="37.26" cy="403.69" r="4.15"/><line class="cls-3" x1="3.74" y1="346.63" x2="137.02" y2="346.63"/><circle class="cls-4" cx="4.4" cy="346.48" r="4.15"/><path class="cls-2" d="M489.7,418.45H423.06l-.11-.2-33.21-57.51L423.06,303H489.7l.11.19L523,360.74Zm-66.19-.78h65.74l32.86-56.93-32.86-56.93H423.51l-32.87,56.93Z" transform="translate(-286.92 -71.18)"/><line class="cls-3" x1="169.46" y1="232.36" x2="169.46" y2="347.27"/><circle class="cls-4" cx="136.59" cy="232.36" r="4.15"/><circle class="cls-4" cx="202.57" cy="232.5" r="4.15"/><circle class="cls-4" cx="235.43" cy="289.71" r="4.15"/><circle class="cls-4" cx="202.32" cy="346.77" r="4.15"/><circle class="cls-4" cx="136.34" cy="346.62" r="4.15"/><line class="cls-3" x1="102.82" y1="289.56" x2="236.1" y2="289.56"/><circle class="cls-4" cx="103.49" cy="289.41" r="4.15"/><path class="cls-2" d="M588.78,475.79H522.14l-.11-.19-33.21-57.52,33.32-57.71h66.64l.11.2,33.21,57.51ZM522.59,475h65.74l32.87-56.93-32.87-56.92H522.59l-32.86,56.92Z" transform="translate(-286.92 -71.18)"/><line class="cls-3" x1="268.54" y1="289.7" x2="268.54" y2="404.62"/><circle class="cls-4" cx="235.67" cy="289.7" r="4.15"/><circle class="cls-4" cx="301.65" cy="289.84" r="4.15"/><circle class="cls-4" cx="334.52" cy="347.05" r="4.15"/><circle class="cls-4" cx="301.4" cy="404.11" r="4.15"/><circle class="cls-4" cx="235.43" cy="403.97" r="4.15"/><line class="cls-3" x1="201.9" y1="346.91" x2="335.18" y2="346.91"/><circle class="cls-4" cx="202.57" cy="346.75" r="4.15"/><path class="cls-2" d="M489.23,647H422.59l-.11-.2L389.27,589.3l33.32-57.71h66.64l.11.2,33.21,57.51ZM423,646.23h65.74l32.86-56.93-32.86-56.92H423L390.17,589.3Z" transform="translate(-286.92 -71.18)"/><line class="cls-3" x1="168.99" y1="460.92" x2="168.99" y2="575.84"/><circle class="cls-4" cx="136.12" cy="460.92" r="4.15"/><circle class="cls-4" cx="202.1" cy="461.06" r="4.15"/><circle class="cls-4" cx="234.96" cy="518.27" r="4.15"/><circle class="cls-4" cx="201.85" cy="575.34" r="4.15"/><circle class="cls-4" cx="135.87" cy="575.19" r="4.15"/><line class="cls-3" x1="102.35" y1="518.13" x2="235.63" y2="518.13"/><circle class="cls-4" cx="103.02" cy="517.97" r="4.15"/><path class="cls-2" d="M588.28,590H521.64l-.11-.19-33.2-57.52,33.31-57.71h66.64l.12.2,33.2,57.51Zm-66.18-.78h65.73l32.87-56.93-32.87-56.93H522.1l-32.87,56.93Z" transform="translate(-286.92 -71.18)"/><line class="cls-3" x1="268.05" y1="403.86" x2="268.05" y2="518.77"/><circle class="cls-4" cx="235.18" cy="403.86" r="4.15"/><circle class="cls-4" cx="301.15" cy="404" r="4.15"/><circle class="cls-4" cx="334.02" cy="461.21" r="4.15"/><circle class="cls-4" cx="300.91" cy="518.27" r="4.15"/><circle class="cls-4" cx="234.93" cy="518.12" r="4.15"/><line class="cls-3" x1="201.41" y1="461.06" x2="334.69" y2="461.06"/><circle class="cls-4" cx="202.07" cy="460.91" r="4.15"/><path class="cls-2" d="M390.36,589.81H323.72l-.11-.2L290.4,532.1l33.32-57.71h66.64l.11.19,33.21,57.52ZM324.17,589h65.74l32.86-56.93-32.86-56.93H324.17L291.31,532.1Z" transform="translate(-286.92 -71.18)"/><line class="cls-3" x1="70.12" y1="403.72" x2="70.12" y2="518.63"/><circle class="cls-4" cx="37.25" cy="403.72" r="4.15"/><circle class="cls-4" cx="103.23" cy="403.86" r="4.15"/><circle class="cls-4" cx="136.1" cy="461.07" r="4.15"/><circle class="cls-4" cx="102.98" cy="518.13" r="4.15"/><circle class="cls-4" cx="37" cy="517.98" r="4.15"/><line class="cls-3" x1="3.48" y1="460.92" x2="136.76" y2="460.92"/><circle class="cls-4" cx="4.15" cy="460.77" r="4.15"/><path class="cls-2" d="M489.45,532.72H422.81l-.11-.19L389.49,475l33.32-57.71h66.64l.11.2L522.77,475Zm-66.19-.78H489L521.87,475,489,418.09H423.26L390.4,475Z" transform="translate(-286.92 -71.18)"/><line class="cls-3" x1="169.21" y1="346.63" x2="169.21" y2="461.55"/><circle class="cls-4" cx="136.34" cy="346.63" r="4.15"/><circle class="cls-4" cx="202.32" cy="346.77" r="4.15"/><circle class="cls-4" cx="235.19" cy="403.98" r="4.15"/><circle class="cls-4" cx="202.07" cy="461.04" r="4.15"/><circle class="cls-4" cx="136.1" cy="460.89" r="4.15"/><line class="cls-3" x1="102.57" y1="403.83" x2="235.85" y2="403.83"/><circle class="cls-4" cx="103.24" cy="403.68" r="4.15"/><path class="cls-2" d="M589.36,247.31H522.72l-.11-.2L489.4,189.6l33.32-57.72h66.64l.12.2,33.2,57.52Zm-66.18-.79h65.73l32.87-56.92-32.87-56.93H523.18L490.31,189.6Z" transform="translate(-286.92 -71.18)"/><line class="cls-3" x1="269.12" y1="61.21" x2="269.12" y2="176.13"/><circle class="cls-4" cx="236.26" cy="61.21" r="4.15"/><circle class="cls-4" cx="302.23" cy="61.35" r="4.15"/><circle class="cls-4" cx="335.1" cy="118.56" r="4.15"/><circle class="cls-4" cx="301.98" cy="175.63" r="4.15"/><circle class="cls-4" cx="236.01" cy="175.48" r="4.15"/><line class="cls-3" x1="202.48" y1="118.42" x2="335.76" y2="118.42"/><circle class="cls-4" cx="203.15" cy="118.26" r="4.15"/><path class="cls-2" d="M688.45,190.24H621.81l-.12-.2-33.2-57.51,33.32-57.71h66.64l.11.19,33.2,57.52Zm-66.19-.78H688l32.87-56.93L688,75.6H622.26l-32.87,56.93Z" transform="translate(-286.92 -71.18)"/><line class="cls-3" x1="368.21" y1="4.15" x2="368.21" y2="119.06"/><circle class="cls-4" cx="335.34" cy="4.15" r="4.15"/><circle class="cls-4" cx="401.31" cy="4.29" r="4.15"/><circle class="cls-4" cx="434.18" cy="61.49" r="4.15"/><circle class="cls-4" cx="401.07" cy="118.56" r="4.15"/><circle class="cls-4" cx="335.09" cy="118.41" r="4.15"/><line class="cls-3" x1="301.57" y1="61.35" x2="434.85" y2="61.35"/><circle class="cls-4" cx="302.23" cy="61.2" r="4.15"/><path class="cls-2" d="M787.53,247.58H720.89l-.12-.19-33.2-57.52,33.32-57.71h66.64l.11.2,33.21,57.51Zm-66.19-.78h65.73l32.87-56.93-32.87-56.93H721.34l-32.87,56.93Z" transform="translate(-286.92 -71.18)"/><line class="cls-3" x1="467.29" y1="61.49" x2="467.29" y2="176.41"/><circle class="cls-4" cx="434.42" cy="61.49" r="4.15"/><circle class="cls-4" cx="500.4" cy="61.63" r="4.15"/><circle class="cls-4" cx="533.26" cy="118.84" r="4.15"/><circle class="cls-4" cx="500.15" cy="175.9" r="4.15"/><circle class="cls-4" cx="434.17" cy="175.75" r="4.15"/><line class="cls-3" x1="400.65" y1="118.69" x2="533.93" y2="118.69"/><circle class="cls-4" cx="401.31" cy="118.54" r="4.15"/><path class="cls-2" d="M688,418.81H621.33l-.11-.2L588,361.09l33.31-57.71H688l.12.2,33.2,57.51ZM621.79,418h65.73l32.87-56.93-32.87-56.92H621.79l-32.87,56.92Z" transform="translate(-286.92 -71.18)"/><line class="cls-3" x1="367.74" y1="232.71" x2="367.74" y2="347.63"/><circle class="cls-4" cx="334.87" cy="232.71" r="4.15"/><circle class="cls-4" cx="400.84" cy="232.85" r="4.15"/><circle class="cls-4" cx="433.71" cy="290.06" r="4.15"/><circle class="cls-4" cx="400.6" cy="347.12" r="4.15"/><circle class="cls-4" cx="334.62" cy="346.98" r="4.15"/><line class="cls-3" x1="301.1" y1="289.92" x2="434.38" y2="289.92"/><circle class="cls-4" cx="301.76" cy="289.76" r="4.15"/><path class="cls-2" d="M787,361.74H720.39l-.11-.2L687.07,304l33.32-57.71H787l.11.19L820.35,304ZM720.84,361h65.74L819.45,304,786.58,247.1H720.84L688,304Z" transform="translate(-286.92 -71.18)"/><line class="cls-3" x1="466.79" y1="175.65" x2="466.79" y2="290.56"/><circle class="cls-4" cx="433.92" cy="175.65" r="4.15"/><circle class="cls-4" cx="499.9" cy="175.79" r="4.15"/><circle class="cls-4" cx="532.77" cy="233" r="4.15"/><circle class="cls-4" cx="499.65" cy="290.06" r="4.15"/><circle class="cls-4" cx="433.68" cy="289.91" r="4.15"/><line class="cls-3" x1="400.15" y1="232.85" x2="533.43" y2="232.85"/><circle class="cls-4" cx="400.82" cy="232.7" r="4.15"/><path class="cls-2" d="M589.11,361.6H522.47l-.12-.2-33.2-57.51,33.32-57.71h66.64l.11.19,33.21,57.52Zm-66.19-.78h65.73l32.87-56.93L588.65,247H522.92l-32.87,56.93Z" transform="translate(-286.92 -71.18)"/><line class="cls-3" x1="268.87" y1="175.51" x2="268.87" y2="290.42"/><circle class="cls-4" cx="236" cy="175.51" r="4.15"/><circle class="cls-4" cx="301.98" cy="175.65" r="4.15"/><circle class="cls-4" cx="334.84" cy="232.85" r="4.15"/><circle class="cls-4" cx="301.73" cy="289.92" r="4.15"/><circle class="cls-4" cx="235.75" cy="289.77" r="4.15"/><line class="cls-3" x1="202.23" y1="232.71" x2="335.51" y2="232.71"/><circle class="cls-4" cx="202.89" cy="232.56" r="4.15"/><path class="cls-2" d="M688.2,304.51H621.56l-.12-.19-33.2-57.52,33.32-57.71H688.2l.11.2,33.21,57.51ZM622,303.73h65.73l32.87-56.93-32.87-56.93H622L589.14,246.8Z" transform="translate(-286.92 -71.18)"/><line class="cls-3" x1="367.96" y1="118.42" x2="367.96" y2="233.33"/><circle class="cls-4" cx="335.09" cy="118.42" r="4.15"/><circle class="cls-4" cx="401.07" cy="118.56" r="4.15"/><circle class="cls-4" cx="433.93" cy="175.77" r="4.15"/><circle class="cls-4" cx="400.82" cy="232.83" r="4.15"/><circle class="cls-4" cx="334.84" cy="232.68" r="4.15"/><line class="cls-3" x1="301.32" y1="175.62" x2="434.6" y2="175.62"/><circle class="cls-4" cx="301.98" cy="175.47" r="4.15"/><path class="cls-2" d="M1083.88,877.57h-66.64l-.11-.2-33.21-57.51,33.32-57.71h66.64l.11.19,33.21,57.52Zm-66.19-.78h65.74l32.87-56.93-32.87-56.93h-65.74l-32.86,56.93Z" transform="translate(-286.92 -71.18)"/><line class="cls-3" x1="763.64" y1="691.48" x2="763.64" y2="806.39"/><circle class="cls-4" cx="730.77" cy="691.48" r="4.15"/><circle class="cls-4" cx="796.75" cy="691.62" r="4.15"/><circle class="cls-4" cx="829.62" cy="748.83" r="4.15"/><circle class="cls-4" cx="796.5" cy="805.89" r="4.15"/><circle class="cls-4" cx="730.53" cy="805.74" r="4.15"/><line class="cls-3" x1="697" y1="748.68" x2="830.28" y2="748.68"/><circle class="cls-4" cx="697.67" cy="748.53" r="4.15"/><path class="cls-2" d="M1183,820.5h-66.64l-.11-.19L1083,762.79l33.32-57.71H1183l.12.2,33.2,57.51Zm-66.18-.78h65.73l32.87-56.93-32.87-56.92h-65.73l-32.87,56.92Z" transform="translate(-286.92 -71.18)"/><line class="cls-3" x1="862.72" y1="634.41" x2="862.72" y2="749.33"/><circle class="cls-4" cx="829.86" cy="634.41" r="4.15"/><circle class="cls-4" cx="895.83" cy="634.55" r="4.15"/><circle class="cls-4" cx="928.7" cy="691.76" r="4.15"/><circle class="cls-4" cx="895.58" cy="748.82" r="4.15"/><circle class="cls-4" cx="829.61" cy="748.67" r="4.15"/><line class="cls-3" x1="796.09" y1="691.61" x2="929.36" y2="691.61"/><circle class="cls-4" cx="796.75" cy="691.46" r="4.15"/><path class="cls-2" d="M1282.05,877.85h-66.64l-.12-.2-33.2-57.51,33.32-57.72h66.64l.11.2,33.21,57.52Zm-66.19-.79h65.73l32.87-56.92-32.87-56.93h-65.73L1183,820.14Z" transform="translate(-286.92 -71.18)"/><line class="cls-3" x1="961.81" y1="691.75" x2="961.81" y2="806.67"/><circle class="cls-4" cx="928.94" cy="691.75" r="4.15"/><circle class="cls-4" cx="994.92" cy="691.89" r="4.15"/><circle class="cls-4" cx="1027.78" cy="749.1" r="4.15"/><circle class="cls-4" cx="994.67" cy="806.17" r="4.15"/><circle class="cls-4" cx="928.69" cy="806.02" r="4.15"/><line class="cls-3" x1="895.17" y1="748.96" x2="1028.45" y2="748.96"/><circle class="cls-4" cx="895.83" cy="748.81" r="4.15"/><path class="cls-2" d="M1182.49,1049.07h-66.64l-.11-.2-33.21-57.51,33.32-57.71h66.64l.12.19,33.2,57.52Zm-66.18-.79H1182l32.87-56.92L1182,934.43h-65.73l-32.87,56.93Z" transform="translate(-286.92 -71.18)"/><line class="cls-3" x1="862.25" y1="862.98" x2="862.25" y2="977.89"/><circle class="cls-4" cx="829.39" cy="862.98" r="4.15"/><circle class="cls-4" cx="895.36" cy="863.12" r="4.15"/><circle class="cls-4" cx="928.23" cy="920.32" r="4.15"/><circle class="cls-4" cx="895.11" cy="977.39" r="4.15"/><circle class="cls-4" cx="829.14" cy="977.24" r="4.15"/><line class="cls-3" x1="795.62" y1="920.18" x2="928.89" y2="920.18"/><circle class="cls-4" cx="796.28" cy="920.03" r="4.15"/><path class="cls-2" d="M1281.55,992h-66.64l-.11-.19-33.21-57.52,33.32-57.71h66.64l.11.2,33.21,57.51Zm-66.19-.78h65.74L1314,934.29l-32.86-56.92h-65.74l-32.86,56.92Z" transform="translate(-286.92 -71.18)"/><line class="cls-3" x1="961.31" y1="805.91" x2="961.31" y2="920.83"/><circle class="cls-4" cx="928.44" cy="805.91" r="4.15"/><circle class="cls-4" cx="994.42" cy="806.05" r="4.15"/><circle class="cls-4" cx="1027.28" cy="863.26" r="4.15"/><circle class="cls-4" cx="994.17" cy="920.32" r="4.15"/><circle class="cls-4" cx="928.19" cy="920.18" r="4.15"/><line class="cls-3" x1="894.67" y1="863.12" x2="1027.95" y2="863.12"/><circle class="cls-4" cx="895.34" cy="862.96" r="4.15"/><path class="cls-2" d="M1083.63,991.86H1017l-.12-.19-33.2-57.52L1017,876.44h66.64l.11.2,33.2,57.51Zm-66.19-.78h65.73L1116,934.15l-32.87-56.93h-65.73l-32.87,56.93Z" transform="translate(-286.92 -71.18)"/><line class="cls-3" x1="763.39" y1="805.77" x2="763.39" y2="920.69"/><circle class="cls-4" cx="730.52" cy="805.77" r="4.15"/><circle class="cls-4" cx="796.49" cy="805.91" r="4.15"/><circle class="cls-4" cx="829.36" cy="863.12" r="4.15"/><circle class="cls-4" cx="796.25" cy="920.18" r="4.15"/><circle class="cls-4" cx="730.27" cy="920.03" r="4.15"/><line class="cls-3" x1="696.75" y1="862.97" x2="830.03" y2="862.97"/><circle class="cls-4" cx="697.41" cy="862.82" r="4.15"/><path class="cls-2" d="M1182.72,934.78h-66.64l-.12-.2-33.2-57.51,33.32-57.72h66.64l.11.2,33.2,57.52Zm-66.19-.79h65.73l32.87-56.92-32.87-56.93h-65.73l-32.87,56.93Z" transform="translate(-286.92 -71.18)"/><line class="cls-3" x1="862.48" y1="748.68" x2="862.48" y2="863.6"/><circle class="cls-4" cx="829.61" cy="748.68" r="4.15"/><circle class="cls-4" cx="895.59" cy="748.82" r="4.15"/><circle class="cls-4" cx="928.45" cy="806.03" r="4.15"/><circle class="cls-4" cx="895.34" cy="863.1" r="4.15"/><circle class="cls-4" cx="829.36" cy="862.95" r="4.15"/><line class="cls-3" x1="795.84" y1="805.89" x2="929.12" y2="805.89"/><circle class="cls-4" cx="796.5" cy="805.73" r="4.15"/><path class="cls-2" d="M1282.35,649.33h-66.64l-.11-.2-33.21-57.51,33.32-57.71h66.64l.12.19,33.2,57.52Zm-66.18-.79h65.73l32.87-56.92-32.87-56.93h-65.73l-32.87,56.93Z" transform="translate(-286.92 -71.18)"/><line class="cls-3" x1="962.11" y1="463.24" x2="962.11" y2="578.15"/><circle class="cls-4" cx="929.25" cy="463.24" r="4.15"/><circle class="cls-4" cx="995.22" cy="463.38" r="4.15"/><circle class="cls-4" cx="1028.09" cy="520.58" r="4.15"/><circle class="cls-4" cx="994.97" cy="577.65" r="4.15"/><circle class="cls-4" cx="929" cy="577.5" r="4.15"/><line class="cls-3" x1="895.48" y1="520.44" x2="1028.75" y2="520.44"/><circle class="cls-4" cx="896.14" cy="520.29" r="4.15"/><path class="cls-2" d="M1381.44,592.26H1314.8l-.12-.19-33.2-57.52,33.32-57.71h66.64l.11.2,33.21,57.51Zm-66.19-.78H1381l32.87-56.93L1381,477.62h-65.73l-32.87,56.93Z" transform="translate(-286.92 -71.18)"/><line class="cls-3" x1="1061.2" y1="406.17" x2="1061.2" y2="521.08"/><circle class="cls-4" cx="1028.33" cy="406.17" r="4.15"/><circle class="cls-4" cx="1094.31" cy="406.31" r="4.15"/><circle class="cls-4" cx="1127.17" cy="463.52" r="4.15"/><circle class="cls-4" cx="1094.06" cy="520.58" r="4.15"/><circle class="cls-4" cx="1028.08" cy="520.43" r="4.15"/><line class="cls-3" x1="994.56" y1="463.37" x2="1127.84" y2="463.37"/><circle class="cls-4" cx="995.22" cy="463.22" r="4.15"/><path class="cls-2" d="M1480.52,649.61h-66.64l-.11-.2-33.21-57.52,33.32-57.71h66.64l.11.2,33.21,57.51Zm-66.19-.79h65.73l32.87-56.93L1480.06,535h-65.73l-32.87,56.92Z" transform="translate(-286.92 -71.18)"/><line class="cls-3" x1="1160.28" y1="463.51" x2="1160.28" y2="578.43"/><circle class="cls-4" cx="1127.41" cy="463.51" r="4.15"/><circle class="cls-4" cx="1193.39" cy="463.65" r="4.15"/><circle class="cls-4" cx="1226.25" cy="520.86" r="4.15"/><circle class="cls-4" cx="1193.14" cy="577.92" r="4.15"/><circle class="cls-4" cx="1127.16" cy="577.78" r="4.15"/><line class="cls-3" x1="1093.64" y1="520.72" x2="1226.92" y2="520.72"/><circle class="cls-4" cx="1094.31" cy="520.56" r="4.15"/><path class="cls-2" d="M1381,820.83h-66.64l-.12-.2L1281,763.12l33.32-57.72H1381l.11.2,33.2,57.52Zm-66.19-.79h65.73l32.87-56.92-32.87-56.93h-65.73l-32.87,56.93Z" transform="translate(-286.92 -71.18)"/><line class="cls-3" x1="1060.73" y1="634.73" x2="1060.73" y2="749.65"/><circle class="cls-4" cx="1027.86" cy="634.73" r="4.15"/><circle class="cls-4" cx="1093.84" cy="634.87" r="4.15"/><circle class="cls-4" cx="1126.7" cy="692.08" r="4.15"/><circle class="cls-4" cx="1093.59" cy="749.15" r="4.15"/><circle class="cls-4" cx="1027.61" cy="749" r="4.15"/><line class="cls-3" x1="994.09" y1="691.94" x2="1127.37" y2="691.94"/><circle class="cls-4" cx="994.75" cy="691.79" r="4.15"/><path class="cls-2" d="M1480,763.76h-66.64l-.11-.19-33.21-57.52,33.32-57.71H1480l.11.2,33.21,57.51Zm-66.18-.78h65.73l32.87-56.93-32.87-56.93h-65.73L1381,706.05Z" transform="translate(-286.92 -71.18)"/><line class="cls-3" x1="1159.78" y1="577.67" x2="1159.78" y2="692.58"/><circle class="cls-4" cx="1126.91" cy="577.67" r="4.15"/><circle class="cls-4" cx="1192.89" cy="577.81" r="4.15"/><circle class="cls-4" cx="1225.76" cy="635.02" r="4.15"/><circle class="cls-4" cx="1192.64" cy="692.08" r="4.15"/><circle class="cls-4" cx="1126.67" cy="691.93" r="4.15"/><line class="cls-3" x1="1093.14" y1="634.87" x2="1226.42" y2="634.87"/><circle class="cls-4" cx="1093.81" cy="634.72" r="4.15"/><path class="cls-2" d="M1282.1,763.62h-66.64l-.12-.19-33.2-57.52,33.32-57.71h66.64l.11.19,33.21,57.52Zm-66.19-.78h65.73l32.87-56.93L1281.64,649h-65.73L1183,705.91Z" transform="translate(-286.92 -71.18)"/><line class="cls-3" x1="961.86" y1="577.53" x2="961.86" y2="692.44"/><circle class="cls-4" cx="928.99" cy="577.53" r="4.15"/><circle class="cls-4" cx="994.97" cy="577.67" r="4.15"/><circle class="cls-4" cx="1027.83" cy="634.88" r="4.15"/><circle class="cls-4" cx="994.72" cy="691.94" r="4.15"/><circle class="cls-4" cx="928.74" cy="691.79" r="4.15"/><line class="cls-3" x1="895.22" y1="634.73" x2="1028.5" y2="634.73"/><circle class="cls-4" cx="895.88" cy="634.58" r="4.15"/><path class="cls-2" d="M1381.19,706.53h-66.64l-.11-.19-33.21-57.52,33.32-57.71h66.64l.11.2,33.21,57.51Zm-66.19-.78h65.73l32.87-56.93-32.87-56.92H1315l-32.87,56.92Z" transform="translate(-286.92 -71.18)"/><line class="cls-3" x1="1060.95" y1="520.44" x2="1060.95" y2="635.36"/><circle class="cls-4" cx="1028.08" cy="520.44" r="4.15"/><circle class="cls-4" cx="1094.06" cy="520.58" r="4.15"/><circle class="cls-4" cx="1126.92" cy="577.79" r="4.15"/><circle class="cls-4" cx="1093.81" cy="634.85" r="4.15"/><circle class="cls-4" cx="1027.83" cy="634.71" r="4.15"/><line class="cls-3" x1="994.31" y1="577.65" x2="1127.59" y2="577.65"/><circle class="cls-4" cx="994.98" cy="577.49" r="4.15"/><path class="cls-2" d="M687.92,533.22H621.28l-.11-.2L588,475.51l33.32-57.72h66.64l.11.2,33.21,57.52Zm-66.19-.79h65.74l32.86-56.92-32.86-56.93H621.73l-32.86,56.93Z" transform="translate(-286.92 -71.18)"/><line class="cls-3" x1="367.68" y1="347.12" x2="367.68" y2="462.04"/><circle class="cls-4" cx="334.81" cy="347.12" r="4.15"/><circle class="cls-4" cx="400.79" cy="347.26" r="4.15"/><circle class="cls-4" cx="433.65" cy="404.47" r="4.15"/><circle class="cls-4" cx="400.54" cy="461.54" r="4.15"/><circle class="cls-4" cx="334.56" cy="461.39" r="4.15"/><line class="cls-3" x1="301.04" y1="404.33" x2="434.32" y2="404.33"/><circle class="cls-4" cx="301.71" cy="404.17" r="4.15"/><path class="cls-2" d="M787,476.15H720.36l-.11-.2L687,418.44l33.32-57.71H787l.11.19,33.21,57.52Zm-66.18-.78h65.73l32.87-56.93-32.87-56.93H720.82L688,418.44Z" transform="translate(-286.92 -71.18)"/><line class="cls-3" x1="466.76" y1="290.06" x2="466.76" y2="404.97"/><circle class="cls-4" cx="433.9" cy="290.06" r="4.15"/><circle class="cls-4" cx="499.87" cy="290.2" r="4.15"/><circle class="cls-4" cx="532.74" cy="347.4" r="4.15"/><circle class="cls-4" cx="499.62" cy="404.47" r="4.15"/><circle class="cls-4" cx="433.65" cy="404.32" r="4.15"/><line class="cls-3" x1="400.12" y1="347.26" x2="533.4" y2="347.26"/><circle class="cls-4" cx="400.79" cy="347.11" r="4.15"/><path class="cls-2" d="M886.08,533.49H819.44l-.11-.19-33.2-57.52,33.31-57.71h66.64l.12.2,33.2,57.51Zm-66.18-.78h65.73l32.87-56.93-32.87-56.92H819.9L787,475.78Z" transform="translate(-286.92 -71.18)"/><line class="cls-3" x1="565.85" y1="347.4" x2="565.85" y2="462.32"/><circle class="cls-4" cx="532.98" cy="347.4" r="4.15"/><circle class="cls-4" cx="598.95" cy="347.54" r="4.15"/><circle class="cls-4" cx="631.82" cy="404.75" r="4.15"/><circle class="cls-4" cx="598.71" cy="461.81" r="4.15"/><circle class="cls-4" cx="532.73" cy="461.66" r="4.15"/><line class="cls-3" x1="499.21" y1="404.6" x2="632.48" y2="404.6"/><circle class="cls-4" cx="499.87" cy="404.45" r="4.15"/><path class="cls-2" d="M786.53,704.72H719.89l-.11-.2L686.57,647l33.32-57.71h66.64l.11.2L819.85,647Zm-66.18-.79h65.73L819,647l-32.87-56.92H720.35L687.48,647Z" transform="translate(-286.92 -71.18)"/><line class="cls-3" x1="466.29" y1="518.62" x2="466.29" y2="633.54"/><circle class="cls-4" cx="433.43" cy="518.62" r="4.15"/><circle class="cls-4" cx="499.4" cy="518.76" r="4.15"/><circle class="cls-4" cx="532.27" cy="575.97" r="4.15"/><circle class="cls-4" cx="499.15" cy="633.03" r="4.15"/><circle class="cls-4" cx="433.18" cy="632.89" r="4.15"/><line class="cls-3" x1="399.65" y1="575.83" x2="532.93" y2="575.83"/><circle class="cls-4" cx="400.32" cy="575.67" r="4.15"/><path class="cls-2" d="M885.59,647.65H819l-.11-.2-33.21-57.51L819,532.23h66.64l.11.19,33.21,57.52Zm-66.19-.78h65.73L918,589.94,885.13,533H819.4l-32.87,56.93Z" transform="translate(-286.92 -71.18)"/><line class="cls-3" x1="565.35" y1="461.56" x2="565.35" y2="576.47"/><circle class="cls-4" cx="532.48" cy="461.56" r="4.15"/><circle class="cls-4" cx="598.46" cy="461.7" r="4.15"/><circle class="cls-4" cx="631.32" cy="518.91" r="4.15"/><circle class="cls-4" cx="598.21" cy="575.97" r="4.15"/><circle class="cls-4" cx="532.23" cy="575.82" r="4.15"/><line class="cls-3" x1="498.71" y1="518.76" x2="631.99" y2="518.76"/><circle class="cls-4" cx="499.38" cy="518.61" r="4.15"/><path class="cls-2" d="M687.66,647.51H621l-.11-.2L587.7,589.8,621,532.09h66.64l.12.19L721,589.8Zm-66.18-.78h65.73l32.87-56.93-32.87-56.93H621.48L588.61,589.8Z" transform="translate(-286.92 -71.18)"/><line class="cls-3" x1="367.42" y1="461.42" x2="367.42" y2="576.33"/><circle class="cls-4" cx="334.56" cy="461.42" r="4.15"/><circle class="cls-4" cx="400.53" cy="461.56" r="4.15"/><circle class="cls-4" cx="433.4" cy="518.76" r="4.15"/><circle class="cls-4" cx="400.28" cy="575.83" r="4.15"/><circle class="cls-4" cx="334.31" cy="575.68" r="4.15"/><line class="cls-3" x1="300.79" y1="518.62" x2="434.06" y2="518.62"/><circle class="cls-4" cx="301.45" cy="518.47" r="4.15"/><path class="cls-2" d="M786.75,590.42H720.11l-.11-.19-33.21-57.52L720.11,475h66.64l.12.2,33.2,57.51Zm-66.18-.78H786.3l32.87-56.93L786.3,475.78H720.57L687.7,532.71Z" transform="translate(-286.92 -71.18)"/><line class="cls-3" x1="466.52" y1="404.33" x2="466.52" y2="519.25"/><circle class="cls-4" cx="433.65" cy="404.33" r="4.15"/><circle class="cls-4" cx="499.62" cy="404.47" r="4.15"/><circle class="cls-4" cx="532.49" cy="461.68" r="4.15"/><circle class="cls-4" cx="499.37" cy="518.74" r="4.15"/><circle class="cls-4" cx="433.4" cy="518.59" r="4.15"/><line class="cls-3" x1="399.88" y1="461.53" x2="533.15" y2="461.53"/><circle class="cls-4" cx="400.54" cy="461.38" r="4.15"/><path class="cls-2" d="M489.33,762.06H422.69l-.11-.19-33.21-57.52,33.32-57.71h66.64l.11.2,33.21,57.51Zm-66.19-.78h65.74l32.87-56.93-32.87-56.92H423.14l-32.86,56.92Z" transform="translate(-286.92 -71.18)"/><line class="cls-3" x1="169.09" y1="575.97" x2="169.09" y2="690.89"/><circle class="cls-4" cx="136.22" cy="575.97" r="4.15"/><circle class="cls-4" cx="202.2" cy="576.11" r="4.15"/><circle class="cls-4" cx="235.07" cy="633.32" r="4.15"/><circle class="cls-4" cx="201.95" cy="690.38" r="4.15"/><circle class="cls-4" cx="135.98" cy="690.23" r="4.15"/><line class="cls-3" x1="102.45" y1="633.18" x2="235.73" y2="633.18"/><circle class="cls-4" cx="103.12" cy="633.02" r="4.15"/><path class="cls-2" d="M588.41,705H521.77l-.11-.2-33.21-57.51,33.32-57.72h66.64l.12.2,33.2,57.52Zm-66.18-.79H588l32.87-56.92L588,590.36H522.23l-32.87,56.93Z" transform="translate(-286.92 -71.18)"/><line class="cls-3" x1="268.17" y1="518.9" x2="268.17" y2="633.82"/><circle class="cls-4" cx="235.31" cy="518.9" r="4.15"/><circle class="cls-4" cx="301.28" cy="519.04" r="4.15"/><circle class="cls-4" cx="334.15" cy="576.25" r="4.15"/><circle class="cls-4" cx="301.03" cy="633.32" r="4.15"/><circle class="cls-4" cx="235.06" cy="633.17" r="4.15"/><line class="cls-3" x1="201.53" y1="576.11" x2="334.81" y2="576.11"/><circle class="cls-4" cx="202.2" cy="575.96" r="4.15"/><path class="cls-2" d="M687.5,762.34H620.86l-.12-.2-33.2-57.51,33.32-57.71H687.5l.11.19,33.2,57.52Zm-66.19-.78H687l32.87-56.93L687,647.7H621.31l-32.87,56.93Z" transform="translate(-286.92 -71.18)"/><line class="cls-3" x1="367.26" y1="576.25" x2="367.26" y2="691.16"/><circle class="cls-4" cx="334.39" cy="576.25" r="4.15"/><circle class="cls-4" cx="400.36" cy="576.39" r="4.15"/><circle class="cls-4" cx="433.23" cy="633.6" r="4.15"/><circle class="cls-4" cx="400.12" cy="690.66" r="4.15"/><circle class="cls-4" cx="334.14" cy="690.51" r="4.15"/><line class="cls-3" x1="300.62" y1="633.45" x2="433.9" y2="633.45"/><circle class="cls-4" cx="301.28" cy="633.3" r="4.15"/><path class="cls-2" d="M587.94,933.56H521.3l-.11-.19L488,875.85l33.32-57.71h66.64l.12.2,33.2,57.51Zm-66.18-.78h65.73l32.87-56.93-32.87-56.93H521.76l-32.87,56.93Z" transform="translate(-286.92 -71.18)"/><line class="cls-3" x1="267.7" y1="747.47" x2="267.7" y2="862.38"/><circle class="cls-4" cx="234.84" cy="747.47" r="4.15"/><circle class="cls-4" cx="300.81" cy="747.61" r="4.15"/><circle class="cls-4" cx="333.68" cy="804.82" r="4.15"/><circle class="cls-4" cx="300.56" cy="861.88" r="4.15"/><circle class="cls-4" cx="234.59" cy="861.73" r="4.15"/><line class="cls-3" x1="201.06" y1="804.67" x2="334.34" y2="804.67"/><circle class="cls-4" cx="201.73" cy="804.52" r="4.15"/><path class="cls-2" d="M687,876.5H620.36l-.11-.2L587,818.79l33.32-57.71H687l.11.19,33.21,57.52Zm-66.19-.79h65.74l32.86-56.92-32.86-56.93H620.81l-32.87,56.93Z" transform="translate(-286.92 -71.18)"/><line class="cls-3" x1="366.76" y1="690.41" x2="366.76" y2="805.32"/><circle class="cls-4" cx="333.89" cy="690.41" r="4.15"/><circle class="cls-4" cx="399.87" cy="690.54" r="4.15"/><circle class="cls-4" cx="432.73" cy="747.75" r="4.15"/><circle class="cls-4" cx="399.62" cy="804.82" r="4.15"/><circle class="cls-4" cx="333.64" cy="804.67" r="4.15"/><line class="cls-3" x1="300.12" y1="747.61" x2="433.4" y2="747.61"/><circle class="cls-4" cx="300.79" cy="747.46" r="4.15"/><path class="cls-2" d="M489.07,876.36H422.43l-.11-.2-33.2-57.51,33.31-57.72h66.64l.12.2,33.2,57.52Zm-66.18-.79h65.73l32.87-56.92-32.87-56.93H422.89L390,818.65Z" transform="translate(-286.92 -71.18)"/><line class="cls-3" x1="168.84" y1="690.26" x2="168.84" y2="805.18"/><circle class="cls-4" cx="135.97" cy="690.26" r="4.15"/><circle class="cls-4" cx="201.94" cy="690.4" r="4.15"/><circle class="cls-4" cx="234.81" cy="747.61" r="4.15"/><circle class="cls-4" cx="201.7" cy="804.68" r="4.15"/><circle class="cls-4" cx="135.72" cy="804.53" r="4.15"/><line class="cls-3" x1="102.2" y1="747.47" x2="235.47" y2="747.47"/><circle class="cls-4" cx="102.86" cy="747.31" r="4.15"/><path class="cls-2" d="M588.17,819.27H521.53l-.12-.2-33.2-57.51,33.32-57.71h66.64l.11.19,33.2,57.52ZM522,818.49h65.73l32.87-56.93-32.87-56.93H522l-32.87,56.93Z" transform="translate(-286.92 -71.18)"/><line class="cls-3" x1="267.93" y1="633.18" x2="267.93" y2="748.09"/><circle class="cls-4" cx="235.06" cy="633.18" r="4.15"/><circle class="cls-4" cx="301.03" cy="633.32" r="4.15"/><circle class="cls-4" cx="333.9" cy="690.52" r="4.15"/><circle class="cls-4" cx="300.79" cy="747.59" r="4.15"/><circle class="cls-4" cx="234.81" cy="747.44" r="4.15"/><line class="cls-3" x1="201.29" y1="690.38" x2="334.57" y2="690.38"/><circle class="cls-4" cx="201.95" cy="690.23" r="4.15"/><path class="cls-2" d="M787.13,819.53H720.49l-.11-.19-33.21-57.52,33.32-57.71h66.64l.11.2,33.21,57.51Zm-66.19-.78h65.74l32.86-56.93L786.68,704.9H720.94l-32.86,56.92Z" transform="translate(-286.92 -71.18)"/><line class="cls-3" x1="466.89" y1="633.44" x2="466.89" y2="748.36"/><circle class="cls-4" cx="434.02" cy="633.44" r="4.15"/><circle class="cls-4" cx="500" cy="633.58" r="4.15"/><circle class="cls-4" cx="532.87" cy="690.79" r="4.15"/><circle class="cls-4" cx="499.75" cy="747.85" r="4.15"/><circle class="cls-4" cx="433.77" cy="747.7" r="4.15"/><line class="cls-3" x1="400.25" y1="690.64" x2="533.53" y2="690.64"/><circle class="cls-4" cx="400.92" cy="690.49" r="4.15"/><path class="cls-2" d="M886.21,762.47H819.57l-.11-.2-33.21-57.51L819.57,647h66.64l.12.2,33.2,57.52ZM820,761.68h65.73l32.87-56.92-32.87-56.93H820l-32.87,56.93Z" transform="translate(-286.92 -71.18)"/><line class="cls-3" x1="565.97" y1="576.37" x2="565.97" y2="691.29"/><circle class="cls-4" cx="533.11" cy="576.37" r="4.15"/><circle class="cls-4" cx="599.08" cy="576.51" r="4.15"/><circle class="cls-4" cx="631.95" cy="633.72" r="4.15"/><circle class="cls-4" cx="598.83" cy="690.79" r="4.15"/><circle class="cls-4" cx="532.86" cy="690.64" r="4.15"/><line class="cls-3" x1="499.33" y1="633.58" x2="632.61" y2="633.58"/><circle class="cls-4" cx="500" cy="633.42" r="4.15"/><path class="cls-2" d="M985.29,819.81H918.65l-.11-.2-33.2-57.51,33.31-57.71h66.64l.12.19,33.2,57.52ZM919.11,819h65.73l32.87-56.93-32.87-56.93H919.11L886.24,762.1Z" transform="translate(-286.92 -71.18)"/><line class="cls-3" x1="665.06" y1="633.72" x2="665.06" y2="748.63"/><circle class="cls-4" cx="632.19" cy="633.72" r="4.15"/><circle class="cls-4" cx="698.16" cy="633.86" r="4.15"/><circle class="cls-4" cx="731.03" cy="691.06" r="4.15"/><circle class="cls-4" cx="697.92" cy="748.13" r="4.15"/><circle class="cls-4" cx="631.94" cy="747.98" r="4.15"/><line class="cls-3" x1="598.42" y1="690.92" x2="731.69" y2="690.92"/><circle class="cls-4" cx="599.08" cy="690.77" r="4.15"/><path class="cls-2" d="M885.74,991H819.1l-.11-.19-33.21-57.52,33.32-57.71h66.64l.11.2,33.21,57.51Zm-66.18-.78h65.73l32.87-56.93-32.87-56.93H819.56l-32.87,56.93Z" transform="translate(-286.92 -71.18)"/><line class="cls-3" x1="565.5" y1="804.94" x2="565.5" y2="919.85"/><circle class="cls-4" cx="532.64" cy="804.94" r="4.15"/><circle class="cls-4" cx="598.61" cy="805.08" r="4.15"/><circle class="cls-4" cx="631.48" cy="862.29" r="4.15"/><circle class="cls-4" cx="598.36" cy="919.35" r="4.15"/><circle class="cls-4" cx="532.39" cy="919.2" r="4.15"/><line class="cls-3" x1="498.86" y1="862.14" x2="632.14" y2="862.14"/><circle class="cls-4" cx="499.53" cy="861.99" r="4.15"/><path class="cls-2" d="M984.8,934H918.16l-.11-.2-33.21-57.51,33.32-57.72H984.8l.11.2,33.21,57.52Zm-66.19-.79h65.74l32.86-56.92-32.86-56.93H918.61l-32.87,56.93Z" transform="translate(-286.92 -71.18)"/><line class="cls-3" x1="664.56" y1="747.87" x2="664.56" y2="862.79"/><circle class="cls-4" cx="631.69" cy="747.87" r="4.15"/><circle class="cls-4" cx="697.67" cy="748.01" r="4.15"/><circle class="cls-4" cx="730.53" cy="805.22" r="4.15"/><circle class="cls-4" cx="697.42" cy="862.29" r="4.15"/><circle class="cls-4" cx="631.44" cy="862.14" r="4.15"/><line class="cls-3" x1="597.92" y1="805.08" x2="731.2" y2="805.08"/><circle class="cls-4" cx="598.59" cy="804.93" r="4.15"/><path class="cls-2" d="M786.87,933.83H720.23l-.11-.2-33.21-57.52,33.32-57.71h66.64l.12.2,33.2,57.51ZM720.69,933h65.73l32.87-56.93-32.87-56.92H720.69l-32.87,56.92Z" transform="translate(-286.92 -71.18)"/><line class="cls-3" x1="466.64" y1="747.73" x2="466.64" y2="862.65"/><circle class="cls-4" cx="433.77" cy="747.73" r="4.15"/><circle class="cls-4" cx="499.74" cy="747.87" r="4.15"/><circle class="cls-4" cx="532.61" cy="805.08" r="4.15"/><circle class="cls-4" cx="499.49" cy="862.15" r="4.15"/><circle class="cls-4" cx="433.52" cy="862" r="4.15"/><line class="cls-3" x1="400" y1="804.94" x2="533.27" y2="804.94"/><circle class="cls-4" cx="400.66" cy="804.78" r="4.15"/><path class="cls-2" d="M886,876.74H819.32l-.11-.2L786,819l33.31-57.71H886l.12.19L919.28,819ZM819.78,876h65.73L918.38,819,885.51,762.1H819.78L786.91,819Z" transform="translate(-286.92 -71.18)"/><line class="cls-3" x1="565.73" y1="690.65" x2="565.73" y2="805.56"/><circle class="cls-4" cx="532.86" cy="690.65" r="4.15"/><circle class="cls-4" cx="598.83" cy="690.79" r="4.15"/><circle class="cls-4" cx="631.7" cy="747.99" r="4.15"/><circle class="cls-4" cx="598.59" cy="805.06" r="4.15"/><circle class="cls-4" cx="532.61" cy="804.91" r="4.15"/><line class="cls-3" x1="499.09" y1="747.85" x2="632.36" y2="747.85"/><circle class="cls-4" cx="499.75" cy="747.7" r="4.15"/><path class="cls-2" d="M985.55,591.8H918.91l-.11-.2-33.21-57.52,33.32-57.71h66.64l.11.2,33.21,57.51ZM919.36,591H985.1L1018,534.08,985.1,477.16H919.36L886.5,534.08Z" transform="translate(-286.92 -71.18)"/><line class="cls-3" x1="665.31" y1="405.7" x2="665.31" y2="520.62"/><circle class="cls-4" cx="632.44" cy="405.7" r="4.15"/><circle class="cls-4" cx="698.42" cy="405.84" r="4.15"/><circle class="cls-4" cx="731.29" cy="463.05" r="4.15"/><circle class="cls-4" cx="698.17" cy="520.12" r="4.15"/><circle class="cls-4" cx="632.2" cy="519.97" r="4.15"/><line class="cls-3" x1="598.67" y1="462.91" x2="731.95" y2="462.91"/><circle class="cls-4" cx="599.34" cy="462.75" r="4.15"/><path class="cls-2" d="M1084.63,534.73H1018l-.11-.2L984.67,477,1018,419.31h66.64l.12.19L1118,477Zm-66.18-.78h65.73L1117.05,477l-32.87-56.93h-65.73L985.58,477Z" transform="translate(-286.92 -71.18)"/><line class="cls-3" x1="764.39" y1="348.64" x2="764.39" y2="463.55"/><circle class="cls-4" cx="731.53" cy="348.64" r="4.15"/><circle class="cls-4" cx="797.5" cy="348.78" r="4.15"/><circle class="cls-4" cx="830.37" cy="405.98" r="4.15"/><circle class="cls-4" cx="797.25" cy="463.05" r="4.15"/><circle class="cls-4" cx="731.28" cy="462.9" r="4.15"/><line class="cls-3" x1="697.76" y1="405.84" x2="831.03" y2="405.84"/><circle class="cls-4" cx="698.42" cy="405.69" r="4.15"/><path class="cls-2" d="M1183.72,592.07h-66.64l-.12-.19-33.2-57.52,33.32-57.71h66.64l.11.2,33.2,57.51Zm-66.19-.78h65.73l32.87-56.93-32.87-56.93h-65.73l-32.87,56.93Z" transform="translate(-286.92 -71.18)"/><line class="cls-3" x1="863.48" y1="405.98" x2="863.48" y2="520.89"/><circle class="cls-4" cx="830.61" cy="405.98" r="4.15"/><circle class="cls-4" cx="896.58" cy="406.12" r="4.15"/><circle class="cls-4" cx="929.45" cy="463.33" r="4.15"/><circle class="cls-4" cx="896.34" cy="520.39" r="4.15"/><circle class="cls-4" cx="830.36" cy="520.24" r="4.15"/><line class="cls-3" x1="796.84" y1="463.18" x2="930.12" y2="463.18"/><circle class="cls-4" cx="797.5" cy="463.03" r="4.15"/><path class="cls-2" d="M1084.16,763.29h-66.64l-.11-.19L984.2,705.58l33.32-57.71h66.64l.12.2,33.2,57.51Zm-66.18-.78h65.73l32.87-56.93-32.87-56.92H1018l-32.87,56.92Z" transform="translate(-286.92 -71.18)"/><line class="cls-3" x1="763.92" y1="577.2" x2="763.92" y2="692.12"/><circle class="cls-4" cx="731.06" cy="577.2" r="4.15"/><circle class="cls-4" cx="797.03" cy="577.34" r="4.15"/><circle class="cls-4" cx="829.9" cy="634.55" r="4.15"/><circle class="cls-4" cx="796.78" cy="691.61" r="4.15"/><circle class="cls-4" cx="730.81" cy="691.47" r="4.15"/><line class="cls-3" x1="697.28" y1="634.41" x2="830.56" y2="634.41"/><circle class="cls-4" cx="697.95" cy="634.25" r="4.15"/><path class="cls-2" d="M1183.22,706.23h-66.64l-.11-.2-33.21-57.51,33.32-57.71h66.64l.11.19,33.21,57.52Zm-66.19-.78h65.74l32.86-56.93-32.86-56.93H1117l-32.87,56.93Z" transform="translate(-286.92 -71.18)"/><line class="cls-3" x1="862.98" y1="520.14" x2="862.98" y2="635.05"/><circle class="cls-4" cx="830.11" cy="520.14" r="4.15"/><circle class="cls-4" cx="896.09" cy="520.28" r="4.15"/><circle class="cls-4" cx="928.95" cy="577.48" r="4.15"/><circle class="cls-4" cx="895.84" cy="634.55" r="4.15"/><circle class="cls-4" cx="829.86" cy="634.4" r="4.15"/><line class="cls-3" x1="796.34" y1="577.34" x2="929.62" y2="577.34"/><circle class="cls-4" cx="797.01" cy="577.19" r="4.15"/><path class="cls-2" d="M985.29,706.09H918.65l-.11-.2-33.2-57.51,33.31-57.71h66.64l.12.19,33.2,57.52Zm-66.18-.79h65.73l32.87-56.92-32.87-56.93H919.11l-32.87,56.93Z" transform="translate(-286.92 -71.18)"/><line class="cls-3" x1="665.06" y1="520" x2="665.06" y2="634.91"/><circle class="cls-4" cx="632.19" cy="520" r="4.15"/><circle class="cls-4" cx="698.16" cy="520.14" r="4.15"/><circle class="cls-4" cx="731.03" cy="577.34" r="4.15"/><circle class="cls-4" cx="697.92" cy="634.41" r="4.15"/><circle class="cls-4" cx="631.94" cy="634.26" r="4.15"/><line class="cls-3" x1="598.42" y1="577.2" x2="731.69" y2="577.2"/><circle class="cls-4" cx="599.08" cy="577.05" r="4.15"/><path class="cls-2" d="M1084.39,649h-66.64l-.12-.19-33.2-57.52,33.32-57.71h66.64l.11.2,33.2,57.51Zm-66.19-.78h65.73l32.87-56.93-32.87-56.93H1018.2l-32.87,56.93Z" transform="translate(-286.92 -71.18)"/><line class="cls-3" x1="764.15" y1="462.91" x2="764.15" y2="577.82"/><circle class="cls-4" cx="731.28" cy="462.91" r="4.15"/><circle class="cls-4" cx="797.25" cy="463.05" r="4.15"/><circle class="cls-4" cx="830.12" cy="520.26" r="4.15"/><circle class="cls-4" cx="797.01" cy="577.32" r="4.15"/><circle class="cls-4" cx="731.03" cy="577.17" r="4.15"/><line class="cls-3" x1="697.51" y1="520.11" x2="830.79" y2="520.11"/><circle class="cls-4" cx="698.17" cy="519.96" r="4.15"/><path class="cls-2" d="M1184,363.73h-66.64l-.11-.2L1084,306l33.32-57.71H1184l.11.2L1217.29,306Zm-66.18-.79h65.73L1216.39,306l-32.87-56.92h-65.73L1084.92,306Z" transform="translate(-286.92 -71.18)"/><line class="cls-3" x1="863.73" y1="177.63" x2="863.73" y2="292.55"/><circle class="cls-4" cx="830.86" cy="177.63" r="4.15"/><circle class="cls-4" cx="896.84" cy="177.77" r="4.15"/><circle class="cls-4" cx="929.71" cy="234.98" r="4.15"/><circle class="cls-4" cx="896.59" cy="292.05" r="4.15"/><circle class="cls-4" cx="830.62" cy="291.9" r="4.15"/><line class="cls-3" x1="797.09" y1="234.84" x2="930.37" y2="234.84"/><circle class="cls-4" cx="797.76" cy="234.68" r="4.15"/><path class="cls-2" d="M1283.05,306.66h-66.64l-.11-.2L1183.09,249l33.32-57.71h66.64l.12.19,33.2,57.52Zm-66.18-.79h65.73L1315.47,249,1282.6,192h-65.73L1184,249Z" transform="translate(-286.92 -71.18)"/><line class="cls-3" x1="962.81" y1="120.57" x2="962.81" y2="235.48"/><circle class="cls-4" cx="929.95" cy="120.57" r="4.15"/><circle class="cls-4" cx="995.92" cy="120.71" r="4.15"/><circle class="cls-4" cx="1028.79" cy="177.91" r="4.15"/><circle class="cls-4" cx="995.67" cy="234.98" r="4.15"/><circle class="cls-4" cx="929.7" cy="234.83" r="4.15"/><line class="cls-3" x1="896.18" y1="177.77" x2="1029.45" y2="177.77"/><circle class="cls-4" cx="896.84" cy="177.62" r="4.15"/><path class="cls-2" d="M1382.14,364H1315.5l-.12-.19-33.2-57.52,33.32-57.71h66.64l.11.2,33.21,57.51Zm-66.19-.78h65.73l32.87-56.93-32.87-56.93H1316l-32.87,56.93Z" transform="translate(-286.92 -71.18)"/><line class="cls-3" x1="1061.9" y1="177.91" x2="1061.9" y2="292.82"/><circle class="cls-4" cx="1029.03" cy="177.91" r="4.15"/><circle class="cls-4" cx="1095.01" cy="178.05" r="4.15"/><circle class="cls-4" cx="1127.87" cy="235.26" r="4.15"/><circle class="cls-4" cx="1094.76" cy="292.32" r="4.15"/><circle class="cls-4" cx="1028.78" cy="292.17" r="4.15"/><line class="cls-3" x1="995.26" y1="235.11" x2="1128.54" y2="235.11"/><circle class="cls-4" cx="995.92" cy="234.96" r="4.15"/><path class="cls-2" d="M1282.58,535.22h-66.64l-.11-.19-33.21-57.52,33.32-57.71h66.64l.12.2,33.2,57.51Zm-66.18-.78h65.73L1315,477.51l-32.87-56.92H1216.4l-32.87,56.92Z" transform="translate(-286.92 -71.18)"/><line class="cls-3" x1="962.34" y1="349.13" x2="962.34" y2="464.05"/><circle class="cls-4" cx="929.48" cy="349.13" r="4.15"/><circle class="cls-4" cx="995.45" cy="349.27" r="4.15"/><circle class="cls-4" cx="1028.32" cy="406.48" r="4.15"/><circle class="cls-4" cx="995.2" cy="463.54" r="4.15"/><circle class="cls-4" cx="929.23" cy="463.4" r="4.15"/><line class="cls-3" x1="895.71" y1="406.34" x2="1028.98" y2="406.34"/><circle class="cls-4" cx="896.37" cy="406.18" r="4.15"/><path class="cls-2" d="M1381.64,478.16H1315l-.11-.2-33.21-57.51L1315,362.74h66.64l.11.19L1415,420.45Zm-66.19-.78h65.74l32.86-56.93-32.86-56.93h-65.74l-32.86,56.93Z" transform="translate(-286.92 -71.18)"/><line class="cls-3" x1="1061.4" y1="292.07" x2="1061.4" y2="406.98"/><circle class="cls-4" cx="1028.53" cy="292.07" r="4.15"/><circle class="cls-4" cx="1094.51" cy="292.21" r="4.15"/><circle class="cls-4" cx="1127.37" cy="349.41" r="4.15"/><circle class="cls-4" cx="1094.26" cy="406.48" r="4.15"/><circle class="cls-4" cx="1028.28" cy="406.33" r="4.15"/><line class="cls-3" x1="994.76" y1="349.27" x2="1128.04" y2="349.27"/><circle class="cls-4" cx="995.43" cy="349.12" r="4.15"/><path class="cls-2" d="M1183.72,478h-66.64l-.12-.2-33.2-57.51,33.32-57.71h66.64l.11.19,33.2,57.52Zm-66.19-.79h65.73l32.87-56.92-32.87-56.93h-65.73l-32.87,56.93Z" transform="translate(-286.92 -71.18)"/><line class="cls-3" x1="863.48" y1="291.93" x2="863.48" y2="406.84"/><circle class="cls-4" cx="830.61" cy="291.93" r="4.15"/><circle class="cls-4" cx="896.58" cy="292.06" r="4.15"/><circle class="cls-4" cx="929.45" cy="349.27" r="4.15"/><circle class="cls-4" cx="896.34" cy="406.34" r="4.15"/><circle class="cls-4" cx="830.36" cy="406.19" r="4.15"/><line class="cls-3" x1="796.84" y1="349.13" x2="930.12" y2="349.13"/><circle class="cls-4" cx="797.5" cy="348.98" r="4.15"/><path class="cls-2" d="M1282.81,420.93h-66.64l-.12-.19-33.2-57.52,33.32-57.71h66.64l.11.2,33.2,57.51Zm-66.19-.78h65.73l32.87-56.93-32.87-56.93h-65.73l-32.87,56.93Z" transform="translate(-286.92 -71.18)"/><line class="cls-3" x1="962.57" y1="234.84" x2="962.57" y2="349.75"/><circle class="cls-4" cx="929.7" cy="234.84" r="4.15"/><circle class="cls-4" cx="995.68" cy="234.98" r="4.15"/><circle class="cls-4" cx="1028.54" cy="292.19" r="4.15"/><circle class="cls-4" cx="995.43" cy="349.25" r="4.15"/><circle class="cls-4" cx="929.45" cy="349.1" r="4.15"/><line class="cls-3" x1="895.93" y1="292.04" x2="1029.21" y2="292.04"/><circle class="cls-4" cx="896.59" cy="291.89" r="4.15"/><path class="cls-2" d="M886.46,305.05H819.82l-.11-.2L786.5,247.34l33.32-57.71h66.64l.11.19,33.21,57.52Zm-66.19-.79H886l32.87-56.92L886,190.41H820.27l-32.86,56.93Z" transform="translate(-286.92 -71.18)"/><line class="cls-3" x1="566.22" y1="118.96" x2="566.22" y2="233.87"/><circle class="cls-4" cx="533.35" cy="118.96" r="4.15"/><circle class="cls-4" cx="599.33" cy="119.09" r="4.15"/><circle class="cls-4" cx="632.2" cy="176.3" r="4.15"/><circle class="cls-4" cx="599.08" cy="233.37" r="4.15"/><circle class="cls-4" cx="533.11" cy="233.22" r="4.15"/><line class="cls-3" x1="499.58" y1="176.16" x2="632.86" y2="176.16"/><circle class="cls-4" cx="500.25" cy="176.01" r="4.15"/><path class="cls-2" d="M985.54,248H918.9l-.11-.19-33.21-57.52,33.32-57.71h66.64l.12.2,33.2,57.51Zm-66.18-.78h65.73L1018,190.27l-32.87-56.93H919.36l-32.87,56.93Z" transform="translate(-286.92 -71.18)"/><line class="cls-3" x1="665.3" y1="61.89" x2="665.3" y2="176.8"/><circle class="cls-4" cx="632.44" cy="61.89" r="4.15"/><circle class="cls-4" cx="698.41" cy="62.03" r="4.15"/><circle class="cls-4" cx="731.28" cy="119.24" r="4.15"/><circle class="cls-4" cx="698.16" cy="176.3" r="4.15"/><circle class="cls-4" cx="632.19" cy="176.15" r="4.15"/><line class="cls-3" x1="598.67" y1="119.09" x2="731.94" y2="119.09"/><circle class="cls-4" cx="599.33" cy="118.94" r="4.15"/><path class="cls-2" d="M1084.63,305.32H1018l-.12-.19-33.2-57.52L1018,189.9h66.64l.11.2,33.2,57.51Zm-66.19-.78h65.73L1117,247.61l-32.87-56.92h-65.73l-32.87,56.92Z" transform="translate(-286.92 -71.18)"/><line class="cls-3" x1="764.39" y1="119.23" x2="764.39" y2="234.15"/><circle class="cls-4" cx="731.52" cy="119.23" r="4.15"/><circle class="cls-4" cx="797.49" cy="119.37" r="4.15"/><circle class="cls-4" cx="830.36" cy="176.58" r="4.15"/><circle class="cls-4" cx="797.25" cy="233.64" r="4.15"/><circle class="cls-4" cx="731.27" cy="233.5" r="4.15"/><line class="cls-3" x1="697.75" y1="176.44" x2="831.03" y2="176.44"/><circle class="cls-4" cx="698.41" cy="176.28" r="4.15"/><path class="cls-2" d="M985.07,476.55H918.43l-.11-.2-33.21-57.51,33.32-57.72h66.64l.12.2,33.2,57.52Zm-66.18-.79h65.73l32.87-56.92-32.87-56.93H918.89L886,418.84Z" transform="translate(-286.92 -71.18)"/><line class="cls-3" x1="664.83" y1="290.45" x2="664.83" y2="405.37"/><circle class="cls-4" cx="631.97" cy="290.45" r="4.15"/><circle class="cls-4" cx="697.94" cy="290.59" r="4.15"/><circle class="cls-4" cx="730.81" cy="347.8" r="4.15"/><circle class="cls-4" cx="697.69" cy="404.87" r="4.15"/><circle class="cls-4" cx="631.72" cy="404.72" r="4.15"/><line class="cls-3" x1="598.19" y1="347.66" x2="731.47" y2="347.66"/><circle class="cls-4" cx="598.86" cy="347.5" r="4.15"/><path class="cls-2" d="M1084.13,419.48h-66.64l-.11-.19-33.21-57.52,33.32-57.71h66.64l.11.2,33.21,57.51Zm-66.19-.78h65.74l32.86-56.93-32.86-56.93h-65.74l-32.87,56.93Z" transform="translate(-286.92 -71.18)"/><line class="cls-3" x1="763.89" y1="233.39" x2="763.89" y2="348.3"/><circle class="cls-4" cx="731.02" cy="233.39" r="4.15"/><circle class="cls-4" cx="797" cy="233.53" r="4.15"/><circle class="cls-4" cx="829.86" cy="290.74" r="4.15"/><circle class="cls-4" cx="796.75" cy="347.8" r="4.15"/><circle class="cls-4" cx="730.77" cy="347.65" r="4.15"/><line class="cls-3" x1="697.25" y1="290.59" x2="830.53" y2="290.59"/><circle class="cls-4" cx="697.92" cy="290.44" r="4.15"/><path class="cls-2" d="M886.2,419.34H819.56l-.11-.2-33.2-57.51,33.31-57.71H886.2l.12.19,33.2,57.52ZM820,418.56h65.73l32.87-56.93L885.75,304.7H820l-32.87,56.93Z" transform="translate(-286.92 -71.18)"/><line class="cls-3" x1="565.97" y1="233.25" x2="565.97" y2="348.16"/><circle class="cls-4" cx="533.1" cy="233.25" r="4.15"/><circle class="cls-4" cx="599.07" cy="233.39" r="4.15"/><circle class="cls-4" cx="631.94" cy="290.6" r="4.15"/><circle class="cls-4" cx="598.83" cy="347.66" r="4.15"/><circle class="cls-4" cx="532.85" cy="347.51" r="4.15"/><line class="cls-3" x1="499.33" y1="290.45" x2="632.6" y2="290.45"/><circle class="cls-4" cx="499.99" cy="290.3" r="4.15"/><path class="cls-2" d="M985.3,362.25H918.66l-.12-.19-33.2-57.52,33.32-57.71H985.3l.11.2,33.2,57.51Zm-66.19-.78h65.73l32.87-56.93-32.87-56.92H919.11l-32.87,56.92Z" transform="translate(-286.92 -71.18)"/><line class="cls-3" x1="665.06" y1="176.16" x2="665.06" y2="291.08"/><circle class="cls-4" cx="632.19" cy="176.16" r="4.15"/><circle class="cls-4" cx="698.16" cy="176.3" r="4.15"/><circle class="cls-4" cx="731.03" cy="233.51" r="4.15"/><circle class="cls-4" cx="697.92" cy="290.57" r="4.15"/><circle class="cls-4" cx="631.94" cy="290.43" r="4.15"/><line class="cls-3" x1="598.42" y1="233.37" x2="731.7" y2="233.37"/><circle class="cls-4" cx="599.08" cy="233.21" r="4.15"/></g></svg>